<?xml version="1.0" ?><svg id="Слой_1" style="enable-background:new 0 0 300 300;" version="1.1" viewBox="0 0 300 300" xml:space="preserve" xmlns="http://www.w3.org/2000/svg" xmlns:xlink="http://www.w3.org/1999/xlink"><g><path d="M138.609,198.491l-14.501,14.501c-0.432,0.432-1.017,0.672-1.621,0.672   c-0.085,0-0.17-0.004-0.256-0.014c-0.693-0.078-1.313-0.467-1.685-1.057L95.605,172.98l-24.527,6.438   c-5.38,1.477-10.574,3.647-15.427,6.431c2.257,6.942,10.566,34.864,12.368,74.561c0.014,0.307-0.035,0.601-0.133,0.873   l76.003,17.264v-58.123C142.303,213.616,139.948,203.714,138.609,198.491z" style="fill:#333333;"/><path d="M180.551,231.496c0-18.9,10.774-35.322,26.495-43.477c0.17-0.119,0.354-0.212,0.549-0.281   c6.386-3.211,13.563-5.062,21.158-5.177c-2.877-1.249-5.834-2.316-8.867-3.148l-23.304-5.196l-23.604,38.357   c-0.367,0.598-0.988,0.994-1.686,1.076c-0.089,0.01-0.178,0.016-0.267,0.016c-0.605,0-1.189-0.239-1.621-0.672l-14.467-14.467   l-6.461,21.967v58.205l48.674-10.508C186.982,259.212,180.551,246.094,180.551,231.496z" style="fill:#333333;"/><path d="M51.636,188.35c-12.922,8.655-25.468,22.872-25.468,39.498v32.649c0,0.138-0.017,0.271-0.04,0.402   h37.35c-0.016-0.093-0.036-0.184-0.04-0.281C61.74,223.215,54.209,196.515,51.636,188.35z" style="fill:#333333;"/><path d="M116.974,176.612c-5.56-6.065-9.62-13.776-11.856-18.631l-5.992,11.984l23.771,37.753l13.361-13.361   C132.33,191.151,123.49,183.72,116.974,176.612z" style="fill:#333333;"/><path d="M112.505,150.151c-1.967,1.155-3.44,2.176-4.477,2.965c0.699,1.673,1.74,4.056,3.083,6.883   L112.505,150.151z" style="fill:#333333;"/><path d="M229.396,264.341c0.009-0.011,0.016-0.023,0.025-0.034c-0.016,0.001-0.031,0.004-0.047,0.005   C229.381,264.321,229.388,264.331,229.396,264.341z" style="fill:#333333;"/><path d="M236.07,224.571c-0.287,0.077-0.599,0.154-0.929,0.229l-3.591,4.091v32.408   C241.789,245.622,237.882,229.881,236.07,224.571z" style="fill:#333333;"/><path d="M258.616,198.057l-18.95,21.588c0.021,0.478,0.037,0.961,0.047,1.448l7.311-6.233l9.624,1.65   c1.248,0.214,2.086,1.4,1.873,2.648c-0.214,1.25-1.403,2.089-2.648,1.873l-7.507-1.287l-7.1,6.053   c0.235,0.851,0.468,1.794,0.685,2.823c2.365,1.307,9.544,5.063,14.141,7.448l0.603,0.314l4.497,7.934   c0.624,1.102,0.237,2.501-0.864,3.126c-0.358,0.202-0.746,0.299-1.129,0.299c-0.799,0-1.575-0.419-1.998-1.163l-3.826-6.751   c-3.649-1.894-7.642-3.979-10.573-5.54c0.222,2.439,0.279,5.12,0.056,7.976l7.215,4.976l-1.316,18.681   c-0.085,1.209-1.091,2.132-2.285,2.132c-0.054,0-0.108-0.001-0.163-0.006c-1.263-0.089-2.216-1.185-2.126-2.448l1.131-16.069   l-3.143-2.168c-1.303,6.723-4.324,14.084-10.366,21.295l-0.688,0.82h-3.448l-0.688-0.82c-5.929-7.078-8.957-14.3-10.316-20.922   l-2.959,2.349l1.034,15.524c0.084,1.264-0.872,2.356-2.136,2.44c-0.052,0.004-0.103,0.005-0.155,0.005   c-1.197,0-2.205-0.929-2.286-2.141l-0.783-11.766l-9.265,10.554c7.832,6.94,18.122,11.166,29.385,11.166   c24.464,0,44.368-19.903,44.368-44.368C273.872,218.165,267.954,206.197,258.616,198.057z" style="fill:#333333;"/><path d="M234.969,218.044c-0.478-5.653-1.961-6.254-5.23-6.254c-3.425,0-5.755,0.611-6.164,8.286   c1.309,0.364,3.352,0.793,5.608,0.724l0.063,0c0.004,0,0.007-0.001,0.01-0.001c0.003,0,0.006,0.001,0.009,0.001l0.133-0.001   c1.211,0.035,2.345-0.074,3.355-0.232L234.969,218.044z" style="fill:#333333;"/><path d="M220.583,243.124c0.013,0.086,0.027,0.172,0.031,0.259c0.646,5.419,2.453,11.447,6.351,17.517   v-26.784l-6.529,7.438C220.474,242.07,220.523,242.594,220.583,243.124z" style="fill:#333333;"/><path d="M226.964,225.324c-1.727-0.137-3.232-0.454-4.383-0.762c-0.084,0.244-0.173,0.513-0.264,0.799   c-0.021,0.081-0.046,0.159-0.075,0.238c-0.37,1.181-0.773,2.68-1.117,4.445c0.019,0.356-0.051,0.711-0.191,1.041   c-0.182,1.071-0.335,2.229-0.445,3.453l6.474-7.376V225.324z" style="fill:#333333;"/><path d="M215.749,239.938c-0.06-1.946,0.007-3.789,0.154-5.518c-2.887,1.532-6.785,3.561-10.354,5.406   l-3.823,6.749c-0.423,0.745-1.198,1.164-1.998,1.164c-0.383,0-0.771-0.096-1.128-0.299c-1.103-0.625-1.489-2.024-0.865-3.126   l4.497-7.936l0.605-0.314c4.487-2.319,11.458-5.953,13.873-7.281c0.242-1.186,0.505-2.262,0.769-3.215l-6.835-5.825l-7.504,1.286   c-1.246,0.211-2.434-0.624-2.648-1.873c-0.213-1.248,0.625-2.434,1.873-2.648l9.619-1.649l6.974,5.943   c0.155-4.999,1.006-9.625,4.521-11.977c-3.748-9.823-9.57-13.891-15.02-16.381c-13.875,7.509-23.321,22.195-23.321,39.049   c0,11.552,4.442,22.083,11.701,29.986L215.749,239.938z" style="fill:#333333;"/><path d="M173.122,173.551c2.535-2.893,4.665-6.107,6.413-9.169l-2.796-15.907   c-0.114-0.043-0.231-0.087-0.348-0.13c-8.319,10.962-19.11,17.608-30.897,17.612c-11.398-0.004-21.869-6.21-30.07-16.531   l-2.042,14.437c1.926,3.261,4.265,6.696,6.973,9.649c7.059,7.701,17.257,16.051,20.02,18.275c0.359,0.075,0.679,0.3,1.017,0.864   c0.29,0.326,0.476,0.728,0.545,1.162c0.914,2.332,2.127,7.22,4.501,17.351l5.188-17.64c0.046-0.155,0.107-0.3,0.18-0.437   c0.008-0.015,0.019-0.028,0.028-0.042c0.069-0.123,0.147-0.239,0.236-0.345c0.031-0.036,0.069-0.067,0.102-0.101   c0.074-0.078,0.149-0.154,0.233-0.221c0.013-0.01,0.022-0.022,0.034-0.032C152.565,192.251,165.176,182.623,173.122,173.551z" style="fill:#333333;"/><path d="M188.755,52.601c0-9.74-5.252-18.563-13.708-23.025c-10.078-5.319-18.805-7.951-27.261-8.271V66.58   c12.154,0.249,24.715,3.293,40.968,9.886V52.601z" style="fill:#333333;"/><path d="M197.32,108.562c1.202-3.809,1.397-7.651,0.549-10.818c-0.434-1.622-1.548-4.464-4.131-5.278   c-0.227-0.072-0.453-0.122-0.679-0.157c0.001,0.153,0.007,0.305,0.007,0.458c0,2.03-0.068,4.035-0.174,6.023l-0.011,0.456   c-0.001,0.036-0.014,0.069-0.017,0.105c-0.397,6.821-1.406,13.372-2.94,19.529c0.649-0.375,1.215-0.79,1.636-1.144   C194.073,115.629,196.118,112.37,197.32,108.562z" style="fill:#333333;"/><path d="M98.106,99.246l-0.011-0.485c-0.105-1.979-0.173-3.974-0.173-5.994c0-0.153,0.006-0.305,0.007-0.458   c-0.225,0.035-0.452,0.085-0.679,0.157c-2.584,0.814-3.697,3.656-4.132,5.278c-0.847,3.167-0.652,7.009,0.549,10.818   c1.202,3.809,3.247,7.067,5.759,9.174c0.422,0.354,0.988,0.769,1.638,1.144c-1.534-6.155-2.542-12.704-2.94-19.522   C98.122,99.32,98.107,99.285,98.106,99.246z" style="fill:#333333;"/><path d="M143.201,21.303c-8.458,0.315-17.181,2.953-27.26,8.273c-8.455,4.462-13.708,13.285-13.708,23.025   v23.864c16.252-6.594,28.809-9.646,40.968-9.887V21.303z" style="fill:#333333;"/><path d="M235.378,208.595c1.793,1.134,2.854,2.889,3.468,5.032l16.157-18.406   c-1.426-1.005-2.907-1.936-4.448-2.771C243.154,196.366,238.168,201.672,235.378,208.595z" style="fill:#333333;"/><path d="M188.399,94.832l0.32-13.428c-17.541-7.266-30.507-10.351-43.209-10.257c-0.01,0-0.021,0-0.031,0   c-12.66-0.11-25.668,2.99-43.209,10.257l0.319,13.428c16.928-11.711,29.938-16.719,42.925-16.593   C158.471,78.095,171.473,83.122,188.399,94.832z" style="fill:#333333;"/><path d="M145.495,161.371c22.102-0.007,40.355-26.772,42.719-61.051c-17.294-12.35-30.13-17.656-42.7-17.494   c-0.129-0.001-0.258-0.001-0.387-0.001c-12.492,0-25.235,5.273-42.353,17.495C105.139,134.599,123.392,161.364,145.495,161.371z" style="fill:#333333;"/><path d="M192.915,171.424l-5.375-12.8c-2.138,4.951-5.746,11.988-10.967,17.949   c-6.364,7.265-15.29,14.63-19.291,17.81l13.313,13.313L192.915,171.424z" style="fill:#333333;"/><path d="M227.809,207.328c0.606-0.074,1.24-0.125,1.93-0.125c0.437,0,0.841,0.028,1.24,0.06   c2.788-7.169,7.537-12.836,14.456-17.166c-4.948-1.911-10.316-2.97-15.931-2.97c-5.546,0-10.853,1.032-15.751,2.899   C218.895,193.016,224.254,197.939,227.809,207.328z" style="fill:#333333;"/><path d="M185.314,153.24c-0.906-0.834-2.418-2.044-4.745-3.417l1.846,10.504   C183.724,157.39,184.691,154.924,185.314,153.24z" style="fill:#333333;"/></g></svg>