<svg enable-background="new 0 0 26 26" viewBox="0 0 26 26" xmlns="http://www.w3.org/2000/svg"><g fill="#ffffff"><path d="m18.3085938 15.2519531c-.3701172 0-.6054688.1582031-.7382813.2910156l-1.4833984 1.484375c-.0117188.0117188-.0751953.0429688-.2216797.0429688-.8173828 0-2.5527344-.9091797-4.2890625-2.6464844-2.3339844-2.3330078-2.8486328-4.265625-2.6035156-4.5107422l1.484375-1.4833984c.9785156-.9785156-.7529297-3.0019531-1.8720703-4.1210938-.5078126-.5078124-2.2509766-2.1630859-3.381836-2.1630859-.3701172 0-.6054688.1582031-.7382813.2910156l-2.96875 2.96875c-.890625.890625-.5732422 2.6201172.9453125 5.1396484 1.3105469 2.1757813 3.3828125 4.7246094 5.8359375 7.1777344 3.6220704 3.6220704 8.4218751 7.2773438 10.9794922 7.2773438h.0009766c.6953125 0 1.1113281-.2695313 1.3369141-.4960938l2.96875-2.96875c.9785156-.9775391-.7529297-3.0009766-1.8720703-4.1201172-.5078125-.5078124-2.2509766-2.1630859-3.3828125-2.1630859zm1.2255859 8.1914063c-.0214844.0214844-.1035156.0566406-.2773438.0566406-1.4931641 0-5.4775391-2.3964844-9.9189453-6.8378906-2.3691406-2.3691406-4.3623047-4.8164063-5.6123047-6.890625-1.3964843-2.319336-1.2773437-3.1972656-1.1689453-3.3056641l2.7763672-2.7763672c.3701172.1513672 1.1992188.6875 2.1914063 1.6796875.9931641.9931641 1.5283203 1.8222656 1.6796875 2.1914063l-1.2919922 1.2919922c-1.3837891 1.3857422.3798828 4.4091797 2.6035156 6.6318359 1.9023438 1.9033203 3.9521484 3.0859375 5.3496094 3.0859375.6601563 0 1.0615234-.2617188 1.2822266-.4824219l1.2919922-1.2919922c.3691406.1513672 1.1982422.6865234 2.1914063 1.6796875.9921875.9931641 1.5283203 1.8212891 1.6796875 2.1914063z"/><path d="m22.4667969 3.5332031c-1.6328125-1.633789-3.8066406-2.5332031-6.1201172-2.5332031-.0009766 0-.0019531 0-.0019531 0-.4140625 0-.75.3359375-.75.75s.3359375.75.75.75h.0019531c1.9130859 0 3.7099609.7431641 5.0595703 2.09375 1.3505859 1.3505859 2.09375 3.1474609 2.09375 5.0615234 0 .4140625.3359375.75.75.75s.75-.3359375.75-.75c.0009766-2.3144531-.8994141-4.4882812-2.5332031-6.1220703z"/><path d="m15.3554688 5.4658203h.0019531c1.3847656 0 2.6845703.5380859 3.6621094 1.5146484.9765625.9775391 1.5146484 2.2783203 1.5146484 3.6640625 0 .4140625.3359375.75.75.75s.75-.3359375.75-.75c.0009766-1.7861328-.6933594-3.4638672-1.9541016-4.7246094-1.2607422-1.2597656-2.9375-1.9541016-4.7226563-1.9541016-.0009766 0-.0019531 0-.0019531 0-.4140625 0-.75.3359375-.75.75s.3359376.7500001.7500001.7500001z"/><path d="m14.3662109 8.4316406h.0019531c.8554688 0 1.6601563.3330078 2.2636719.9365234.6044922.6044922.9365234 1.4091797.9365234 2.265625 0 .4140625.3359375.75.75.75s.75-.3359375.75-.75c.0009766-1.2568359-.4882813-2.4384766-1.3759766-3.3261719-.8867186-.8876952-2.0673827-1.3759765-3.3242186-1.3759765-.0009766 0-.0019531 0-.0019531 0-.4140625 0-.75.3359375-.75.75s.3359374.75.7499999.75z"/></g></svg>