<?xml version="1.0" ?><svg enable-background="new 0 0 500 500" id="Layer_1" version="1.1" viewBox="0 0 500 500" xml:space="preserve" xmlns="http://www.w3.org/2000/svg" xmlns:xlink="http://www.w3.org/1999/xlink"><g><path d="M334.676,287.643c-1.307-1.39-2.972-2.076-4.861-1.845L295,290.054v-3.104   c0-10.917-4.816-20.776-12.153-27.776l57.895-20.863c1.896-0.682,3.264-2.269,3.74-4.227l13.547-55.87   c0.3-1.237,0.19-2.475-0.241-3.578l-14.867,14.868l-9.385,38.614l-45.642,16.414l-18.94,18.914   C277.255,268.091,283,276.997,283,286.95V291h-41.627l-12,12H283v33h-66v-19.341c0-0.39,0-0.784,0-1.177v-0.107l-12,12v75.627   C205,422.741,221.276,439,241.016,439h17.722c19.74,0,36.262-16.259,36.262-35.999v-77.237l31.236,17.621l29.093,47.973   c1.13,1.855,3.047,2.879,5.07,2.879c1.063,0,2.11-0.283,3.084-0.875c2.829-1.722,3.711-5.411,1.989-8.24l-30.035-49.318   c-0.537-0.881-1.065-1.609-1.965-2.114L295,312.019v-9.883l33.249-4.066l36.257,38.684c1.18,1.255,2.715,1.889,4.311,1.889   c1.473,0,2.92-0.539,4.078-1.628c2.412-2.268,2.499-6.063,0.23-8.476L334.676,287.643z M283,403.001   C283,416.129,271.866,427,258.738,427h-17.722C227.888,427,217,416.129,217,403.001V394h66V403.001z M283,382h-66v-34h66V382z" fill="#474747"/><path d="M131.993,338.642c1.596,0,3.192-0.634,4.372-1.889l36.292-38.684l23.485,2.859l22.239-22.239   c2.687-8.195,9.224-14.815,17.411-17.438L249.017,248h-5.394h-1.953c-3.888,0-6.671-2.622-6.671-6.51v-9.826   c0-0.639-0.287-0.664-0.127-1.664h30.008c0.16,1,0.119,1.025,0.119,1.664v0.355l41.533-41.507l-9.939-61.304   c-1.401-8.389-5.825-15.57-12.057-20.518l4.766-10.082c2.337-4.947,1.807-10.934-1.354-15.254l-15.28-20.879   c-1.173-1.601-3.342-2.1-5.095-1.172c-1.754,0.928-2.562,3.002-1.898,4.872l6.056,17.044c1.33,3.745,0.356,8.154-2.317,10.484   l-8.613,7.247c-0.109,0.095-0.194,0.049-0.29,0.049h-25.968c-0.096,0-0.181,0.046-0.291-0.049l-8.613-7.378   c-2.673-2.331-3.648-6.674-2.318-10.419l6.056-17.012c0.664-1.87-0.143-3.928-1.897-4.856c-1.753-0.928-3.923-0.42-5.095,1.181   l-15.281,20.883c-3.161,4.319-3.693,10.309-1.357,15.255l5.178,10.964c-5.674,4.906-9.688,11.746-11.011,19.664l-9.956,61.297   c-1.007,6.205-0.555,12.501,1.307,18.037c4.43,13.164,15.576,21.432,29.087,21.432h2.363c-0.059,1,0.282,1.041,0.282,1.664v9.826   c0,2.486,0.298,4.86,1.168,7.039l-56.849-20.411l-12.86-52.736c-0.782-3.218-4.046-5.192-7.266-4.411   c-3.218,0.782-5.204,4.025-4.423,7.243l13.569,55.87c0.475,1.957,1.899,3.545,3.795,4.227l57.173,20.6   C209.809,265.926,205,275.897,205,286.95v2.982l-33.935-4.134c-1.896-0.231-3.731,0.455-5.038,1.845l-38.424,40.894   c-2.269,2.413-2.138,6.208,0.274,8.476C129.036,338.102,130.52,338.642,131.993,338.642z M274.67,99.73   c3.688-3.215,5.701-8.195,5.643-13.276l1.187,1.622c1.411,1.927,1.649,4.854,0.579,7.117l-4.394,9.302   c-1.941-0.882-3.978-1.584-6.093-2.082L274.67,99.73z M217.646,105.073l-4.667-9.88c-1.069-2.263-0.831-5.189,0.58-7.116   l1.186-1.621c-0.059,5.081,1.956,10.06,5.644,13.275l3.407,2.97C221.652,103.287,219.597,104.089,217.646,105.073z" fill="#474747"/></g><path d="M419.144,80.701C373.938,35.496,313.835,10.6,249.905,10.6S125.871,35.496,80.666,80.701  C35.46,125.906,10.565,186.01,10.565,249.94S35.46,373.974,80.666,419.179c45.205,45.206,105.309,70.101,169.239,70.101  s124.034-24.896,169.239-70.101c45.206-45.205,70.101-105.309,70.101-169.239S464.349,125.906,419.144,80.701z M98.344,98.379  C138.827,57.895,192.652,35.6,249.905,35.6c49.585,0,96.592,16.735,134.594,47.513L83.078,384.534  c-30.778-38.003-47.513-85.009-47.513-134.594C35.565,192.687,57.86,138.862,98.344,98.379z M401.466,401.501  c-40.483,40.483-94.309,62.779-151.561,62.779c-56.515,0-109.681-21.738-149.981-61.237L403.008,99.959  c39.499,40.3,61.236,93.466,61.236,149.981C464.245,307.192,441.949,361.018,401.466,401.501z" fill="#474747"/></svg>