<?xml version="1.0" ?><svg id="Слой_1" style="enable-background:new 0 0 300 300;" version="1.1" viewBox="0 0 300 300" xml:space="preserve" xmlns="http://www.w3.org/2000/svg" xmlns:xlink="http://www.w3.org/1999/xlink"><g><path d="M150,18.218C77.335,18.218,18.218,77.335,18.218,150S77.335,281.782,150,281.782   S281.782,222.665,281.782,150S222.665,18.218,150,18.218z M227.149,239.875C205.652,258.354,178.254,268.53,150,268.53   c-65.357,0-118.53-53.173-118.53-118.53c0-28.254,10.176-55.653,28.654-77.148c0.401-0.466,0.978-0.745,1.592-0.768   c0.636-0.045,1.211,0.211,1.645,0.646l163.91,163.909c0.435,0.434,0.669,1.031,0.646,1.645   C227.893,238.897,227.615,239.474,227.149,239.875z M239.877,227.147c-0.401,0.466-0.978,0.745-1.592,0.768   c-0.028,0.001-0.056,0.001-0.083,0.001c-0.585,0-1.147-0.232-1.562-0.647L72.73,63.36c-0.435-0.434-0.669-1.031-0.646-1.645   c0.023-0.614,0.301-1.191,0.768-1.592C94.348,41.646,121.746,31.47,150,31.47c65.357,0,118.53,53.172,118.53,118.53   C268.53,178.254,258.354,205.651,239.877,227.147z" style="fill:#333333;"/><path d="M102.18,198.761c7.345,14.905,23.759,32.508,45.871,33.145   c18.783-0.541,33.451-13.324,41.944-26.297l-79.136-79.136C97.62,154.428,94.167,182.501,102.18,198.761z" style="fill:#333333;"/><path d="M183.615,123.078c-1.38-2.747-2.793-5.202-4.22-7.414c-0.104-0.131-0.197-0.27-0.27-0.422   c-14.429-22.009-30.282-18.328-30.457-18.283c-0.355,0.088-0.725,0.092-1.081,0.001c-0.179-0.043-1.297-0.29-3.097-0.29   c-3.251,0-8.73,0.806-14.922,5.075c-0.177,0.179-0.382,0.331-0.618,0.443c-1.92,1.385-3.902,3.106-5.904,5.242l74.935,74.934   c0.168-2.213,0.244-4.495,0.191-6.866c-0.063-0.281-0.07-0.559-0.021-0.843C197.649,159.344,192.665,141.089,183.615,123.078z" style="fill:#333333;"/><path d="M148.125,92.563c2.004-0.369,9.05-1.168,17.608,3.483c-0.201-3.463-1.114-9.665-4.997-12.473   c-3.232-2.338-6.083-5.273-8.373-7.632c-1.452-1.494-3.393-3.494-4.312-4.007c-0.919,0.513-2.859,2.512-4.311,4.007   c-2.291,2.358-5.141,5.294-8.374,7.632c-3.685,2.664-4.744,8.661-4.923,12.464C139.035,91.393,146.12,92.195,148.125,92.563z" style="fill:#333333;"/><path d="M127.113,88.961l-4.772-16.825c-0.118-0.417-0.357-0.791-0.686-1.073l-17.727-15.225   c-0.923-0.795-2.319-0.689-3.115,0.236c-0.794,0.926-0.689,2.321,0.237,3.115l17.223,14.792l7.175,25.296L127.113,88.961z    M170.548,99.169l7.274-25.183l17.236-14.8c0.925-0.794,1.032-2.188,0.237-3.115c-0.796-0.923-2.191-1.031-3.115-0.236   l-17.737,15.229c-0.326,0.28-0.564,0.648-0.683,1.063l-4.803,16.631L170.548,99.169z M183.472,113.836   c0.556-2.343,2.582-9.381,8.226-17.122c6.904-9.47,24.596-19.428,24.774-19.527c1.065-0.595,1.445-1.941,0.85-3.005   c-0.594-1.065-1.939-1.444-3.005-0.851c-0.76,0.426-18.712,10.527-26.187,20.781c-4.261,5.845-6.624,11.317-7.883,15.026   L183.472,113.836z M196.787,143.583c8.02,3.421,24.852,11.623,31.31,22.551c0.413,0.699,1.148,1.086,1.904,1.086   c0.382,0,0.769-0.099,1.122-0.308c1.05-0.62,1.398-1.974,0.778-3.024c-8.49-14.368-31.82-23.875-37.008-25.849L196.787,143.583z    M202.509,180.19c6.729,6.575,20.589,20.933,24.242,30.943l3.493,3.492c1.044-0.375,1.667-1.473,1.406-2.578   c-3.141-13.251-24.925-34.053-29.174-38.011L202.509,180.19z" style="fill:#333333;"/><path d="M93.59,174.776c-3.836,3.576-25.135,23.91-28.301,37.271c-0.281,1.186,0.453,2.377,1.639,2.659   c0.172,0.04,0.343,0.059,0.512,0.059c1,0,1.906-0.683,2.147-1.7c2.375-10.021,17.174-25.455,24.047-32.202L93.59,174.776z    M101.12,138.291c-4.585,1.746-27.482,11.044-36.081,25.596c-0.62,1.05-0.272,2.404,0.778,3.024   c0.353,0.208,0.74,0.308,1.122,0.308c0.756,0,1.491-0.388,1.904-1.086c6.459-10.93,22.696-18.963,30.389-22.288L101.12,138.291z" style="fill:#333333;"/></g></svg>