<?xml version="1.0" ?><svg enable-background="new 0 0 500 500" id="Layer_1" version="1.1" viewBox="0 0 500 500" xml:space="preserve" xmlns="http://www.w3.org/2000/svg" xmlns:xlink="http://www.w3.org/1999/xlink"><g><path d="M157.628,339.671l11.541-11.54c-29.003-1.661-56.818-4.398-79.293-9.502   c-16.198-3.678-25.882-8.973-26.568-14.527c-0.825-6.668,9.327-16.341,20.87-24.385c-2.293,6.892-2.623,12.774,0.458,17.987   c5.419,9.171,19.195,12.874,50.825,13.665c17.118,0.428,34.063,0.632,49.768,0.7l57.187-57.187   c-2.909-3.063-6.125-6.004-9.665-8.777c-14.93-11.695-33.129-18.689-48.713-18.726c-2.103-0.005-3.968-1.561-4.18-3.653   c-0.248-2.445,1.664-4.507,4.058-4.507c17.373,0,37.51,7.649,53.867,20.462c3.797,2.974,7.258,6.134,10.403,9.431l98.394-98.394   c-4.083-1.563-8.223-2.009-12.235-1.244c-8.24,1.573-15.115,8.056-19.36,18.255c-1.56,3.746-2.659,7.804-3.27,11.897   c-26.976-12.97-63.245-27.649-89.237-27.649c-21.646,0-47.008,11.186-71.416,31.498c-21.187,17.631-40.093,40.932-50.573,62.328   c-2.265,4.624-4.451,8.841-6.566,12.92c-0.188,0.362-0.373,0.719-0.558,1.077c-3.584,1.923-11.984,6.64-20.312,12.84   c-15.776,11.744-23.142,22.832-21.894,32.958c1.433,11.624,13.21,19.791,36.005,24.968   C107.56,335.196,131.979,337.926,157.628,339.671z" fill="#474747"/><path d="M263.228,311.391c0.119,0.024,0.232,0.063,0.355,0.077l28.344,3.239l3.441,2.279   c0.693,0.459,1.475,0.679,2.249,0.679c1.405,0,2.781-0.724,3.545-2.054c1.087-1.892,0.385-4.32-1.434-5.524l-4.112-2.723   c-0.537-0.356-1.15-0.579-1.79-0.652l-15.501-1.772l11.779-1.818l6.145,1.899c2.036,0.629,4.314-0.297,5.134-2.264   c0.94-2.256-0.278-4.775-2.557-5.479l-7.211-2.229c-0.591-0.183-1.216-0.229-1.827-0.134l-22.62,3.491   c-1.217,0.188-2.451-0.265-3.235-1.215c-1.49-1.805-2.679-4.212-3.253-5.483c-0.248-0.548-0.4-1.128-0.475-1.725   c-0.586-4.676-1.845-9.307-3.701-13.833l-35.862,35.862C243.228,311.847,259.341,311.485,263.228,311.391z" fill="#474747"/><path d="M446.118,264.612l-39.401-20.149c-0.145-0.067-0.291-0.134-0.436-0.202   c-3.221-1.365-5.904-3.653-7.761-6.618l-12.197-19.473c-3.668-5.858-9.316-10.237-15.903-12.332l-1.041-0.331   c3.045-6.443,4.153-14.082,2.665-21.876v0c-1.046-5.48-3.42-11.18-6.697-16.327L262.69,269.964   c2.704,5.761,4.556,11.718,5.444,17.77c0.239,1.627,1.645,2.823,3.289,2.774l34.378-1.025l24.625,15.405   c7.278,4.47,15.64,7.113,24.18,7.113h16.682l27.424,4.323l3.326,2.354c0.728,0.535,1.574,0.747,2.413,0.747   c1.237,0,2.458-0.584,3.26-1.645c1.37-1.815,0.841-4.521-0.991-5.868l-3.965-2.92c-0.518-0.381-1.119-0.637-1.754-0.741   l-15.396-2.531l11.854-1.239l6.209,2.258c2.243,0.818,4.734-0.457,5.348-2.824c0.535-2.062-0.72-4.176-2.721-4.904l-6.932-2.521   c-0.581-0.211-1.202-0.288-1.817-0.223l-17.384,1.816l-3.231-2.912l56.345-6.195c1.57-0.172,3.013-0.951,4.026-2.162l10.622-12.701   c0.741-0.886,1.282-1.942,1.456-3.083C449.792,268.311,448.41,265.785,446.118,264.612z M373.416,238.599   c-0.934,3.024-5.184,4.396-9.493,3.065s-7.044-4.861-6.11-7.885c0.934-3.024,5.184-4.396,9.492-3.065   C371.614,232.045,374.35,235.576,373.416,238.599z" fill="#474747"/><path d="M335.969,338.576c-16.812-5.714-54.245-6.72-97.558-7.884c-11.544-0.31-23.438-0.631-35.401-1.047   l-11.804,11.804c15.819,0.642,31.649,1.07,46.876,1.479c40.724,1.094,79.189,2.128,94.106,7.292   c0.663,0.229,1.338,0.338,2.001,0.338c2.65,0,5.121-1.735,5.892-4.468C340.974,342.926,339.08,339.634,335.969,338.576z" fill="#474747"/></g><path d="M419.477,80.701C374.272,35.496,314.168,10.6,250.238,10.6S126.204,35.496,80.999,80.701  C35.794,125.906,10.898,186.01,10.898,249.94s24.896,124.034,70.101,169.239c45.205,45.206,105.309,70.101,169.239,70.101  s124.034-24.896,169.239-70.101c45.206-45.205,70.101-105.309,70.101-169.239S464.682,125.906,419.477,80.701z M98.677,98.379  C139.16,57.895,192.986,35.6,250.238,35.6c49.585,0,96.592,16.735,134.594,47.513L83.411,384.534  c-30.778-38.003-47.513-85.009-47.513-134.594C35.898,192.687,58.194,138.862,98.677,98.379z M401.799,401.501  c-40.483,40.483-94.309,62.779-151.561,62.779c-56.515,0-109.681-21.738-149.981-61.237L403.342,99.959  c39.499,40.3,61.236,93.466,61.236,149.981C464.578,307.192,442.283,361.018,401.799,401.501z" fill="#474747"/></svg>