<?xml version="1.0" ?><svg enable-background="new 0 0 500 500" id="Layer_1" version="1.1" viewBox="0 0 500 500" xml:space="preserve" xmlns="http://www.w3.org/2000/svg" xmlns:xlink="http://www.w3.org/1999/xlink"><g><path d="M242.95,115.269c26.315,0,47.724-21.409,47.724-47.724s-21.409-47.724-47.724-47.724   s-47.724,21.409-47.724,47.724S216.635,115.269,242.95,115.269z" fill="#474747"/><path d="M66.931,216.909l24.246,9.916c8.628,3.529,18.575-0.644,22.103-9.272l39.065-95.519   c3.529-8.628-0.644-18.575-9.272-22.104l-24.246-9.916c-8.628-3.529-18.575,0.644-22.103,9.272l-39.065,95.519   C54.13,203.434,58.303,213.38,66.931,216.909z" fill="#474747"/><path d="M395.973,254.924l-81.834-16.395c-3.249-6.847-9.559-12.141-17.554-13.787l-55.546-11.434l3.503-41.334   c0.011-0.083,0.034-0.158,0.041-0.245c1.657-20.81,7.432-43.255-33.096-56.583c-36.801-12.103-53.064,25.497-53.064,25.497   s0.065,0.037,0.163,0.092c-0.202,0.436-0.396,0.879-0.576,1.332l-55.522,140.189c-1.282,3.237-1.874,6.706-1.738,10.185   l2.921,74.554l-81.705,66.631c-10.7,8.726-12.301,24.474-3.575,35.174c4.942,6.06,12.135,9.201,19.389,9.201   c5.555,0,11.145-1.843,15.785-5.627l91.374-74.516c6.088-4.965,9.488-12.503,9.181-20.353l-2.277-58.108   c0.237,0.18,0.461,0.372,0.705,0.544l61.346,43.333l17.524,94.293c2.236,12.031,12.74,20.437,24.551,20.437   c1.515-0.001,3.053-0.139,4.596-0.426c13.575-2.522,22.534-15.572,20.011-29.147l-19.381-104.282   c-1.19-6.405-4.834-12.093-10.155-15.852l-53.771-37.981l12.417-32.413l76.816,15.811c1.7,0.351,3.396,0.519,5.066,0.519   c11.616,0,22.027-8.142,24.461-19.965c0.004-0.02,0.007-0.04,0.011-0.061L387,268.424V273c0,4.143,3.358,7.5,7.5,7.5   s7.5-3.357,7.5-7.5v-10.723C402,258.703,399.478,255.626,395.973,254.924z" fill="#474747"/><path d="M483.298,321.47l-0.441-0.263c-2.374-1.411-5.441-0.632-6.854,1.74c-1.412,2.372-0.633,5.441,1.74,6.854   l0.441,0.263c0.802,0.477,1.683,0.704,2.552,0.704c1.705,0,3.366-0.873,4.302-2.444C486.45,325.951,485.671,322.882,483.298,321.47   z" fill="#474747"/><path d="M466.526,311.493l-6.785-4.036c-2.374-1.414-5.441-0.632-6.854,1.74c-1.412,2.374-0.632,5.442,1.741,6.854   l6.785,4.036c0.801,0.478,1.682,0.704,2.551,0.704c1.705,0,3.367-0.873,4.302-2.444   C469.679,315.973,468.899,312.904,466.526,311.493z" fill="#474747"/><path d="M445.853,299.197l-8.893-5.479c-2.353-1.45-5.432-0.717-6.88,1.634c-1.449,2.352-0.717,5.432,1.634,6.88   l8.893,5.479c0.818,0.504,1.724,0.744,2.618,0.744c1.678,0,3.317-0.845,4.262-2.378   C448.936,303.726,448.204,300.646,445.853,299.197z" fill="#474747"/><path d="M422.66,296.032c1.706,0,3.368-0.874,4.303-2.446c1.411-2.374,0.63-5.442-1.744-6.853l-1.048-0.623   c-2.375-1.413-5.441-0.63-6.853,1.743c-1.411,2.374-0.63,5.442,1.744,6.853l1.048,0.623   C420.911,295.806,421.791,296.032,422.66,296.032z" fill="#474747"/><path d="M397.78,304.84c-0.28-0.18-0.57-0.33-0.87-0.46c-0.3-0.12-0.61-0.22-0.93-0.28c-0.65-0.13-1.31-0.13-1.96,0   c-0.32,0.061-0.63,0.16-0.93,0.28c-0.3,0.13-0.59,0.28-0.86,0.46c-0.28,0.18-0.53,0.39-0.77,0.63c-0.93,0.92-1.46,2.21-1.46,3.53   c0,0.33,0.03,0.649,0.1,0.979c0.06,0.32,0.16,0.63,0.28,0.931c0.13,0.3,0.28,0.59,0.46,0.87c0.19,0.27,0.39,0.529,0.62,0.76   c0.24,0.229,0.49,0.439,0.77,0.62c0.27,0.18,0.56,0.33,0.86,0.46c0.3,0.12,0.61,0.22,0.93,0.279c0.33,0.07,0.65,0.101,0.98,0.101   c1.32,0,2.6-0.53,3.54-1.46c0.23-0.23,0.44-0.49,0.62-0.76c0.18-0.28,0.33-0.57,0.46-0.87c0.12-0.301,0.22-0.61,0.28-0.931   c0.07-0.33,0.1-0.649,0.1-0.979c0-1.311-0.53-2.601-1.46-3.53C398.31,305.229,398.05,305.02,397.78,304.84z" fill="#474747"/><path d="M395,319c-2.761,0-5,2.238-5,5v7c0,2.762,2.239,5,5,5s5-2.238,5-5v-7C400,321.238,397.761,319,395,319z" fill="#474747"/><path d="M395,345c-2.761,0-5,2.238-5,5v12c0,2.762,2.239,5,5,5s5-2.238,5-5v-12C400,347.238,397.761,345,395,345z" fill="#474747"/><path d="M395,380c-2.761,0-5,2.238-5,5v10c0,2.762,2.239,5,5,5s5-2.238,5-5v-10C400,382.238,397.761,380,395,380z" fill="#474747"/><path d="M395,405c-2.761,0-5,2.238-5,5v2c0,2.762,2.239,5,5,5s5-2.238,5-5v-2C400,407.238,397.761,405,395,405z" fill="#474747"/><path d="M457.417,363.317c-1.507-2.315-4.605-2.97-6.918-1.463c-2.314,1.507-2.969,4.604-1.462,6.918l1.478,2.27   c0.958,1.473,2.561,2.273,4.195,2.273c0.935,0,1.881-0.263,2.723-0.811c2.314-1.507,2.969-4.604,1.462-6.918L457.417,363.317z" fill="#474747"/><path d="M441.518,338.887c-1.506-2.313-4.603-2.969-6.918-1.463c-2.314,1.506-2.97,4.604-1.464,6.918l4.535,6.969   c0.958,1.473,2.561,2.273,4.196,2.273c0.935,0,1.88-0.263,2.722-0.811c2.314-1.506,2.97-4.604,1.464-6.918L441.518,338.887z" fill="#474747"/><path d="M432.662,325.281l-4.291-6.592c-1.505-2.314-4.603-2.969-6.918-1.463c-2.314,1.506-2.969,4.604-1.463,6.918   l4.291,6.592c0.958,1.473,2.56,2.273,4.195,2.273c0.935,0,1.881-0.263,2.723-0.811   C433.514,330.693,434.168,327.596,432.662,325.281z" fill="#474747"/><path d="M415.737,299.277c-1.507-2.315-4.604-2.97-6.918-1.463c-2.314,1.507-2.969,4.604-1.462,6.918l1.6,2.458   c0.958,1.473,2.56,2.273,4.195,2.273c0.935,0,1.881-0.263,2.723-0.811c2.314-1.507,2.969-4.604,1.462-6.918L415.737,299.277z" fill="#474747"/><path d="M309.193,320.474l-1.674,0.996c-2.373,1.412-3.152,4.48-1.74,6.854c0.936,1.572,2.597,2.444,4.302,2.444   c0.87,0,1.75-0.228,2.552-0.704l1.674-0.996c2.373-1.412,3.152-4.48,1.74-6.854C314.635,319.84,311.567,319.063,309.193,320.474z" fill="#474747"/><path d="M339.642,308.181c-1.411-2.373-4.479-3.153-6.854-1.741l-8.399,4.996c-2.373,1.411-3.153,4.479-1.741,6.853   c0.935,1.572,2.597,2.445,4.302,2.445c0.869,0,1.75-0.228,2.551-0.704l8.399-4.996   C340.274,313.622,341.054,310.554,339.642,308.181z" fill="#474747"/><path d="M346.467,309.124c0.869,0,1.75-0.228,2.551-0.704l1.266-0.753c2.374-1.412,3.153-4.48,1.741-6.854   c-1.412-2.372-4.479-3.151-6.853-1.74l-1.266,0.753c-2.374,1.412-3.153,4.48-1.741,6.854   C343.1,308.251,344.762,309.124,346.467,309.124z" fill="#474747"/><path d="M361.576,300.137c0.869,0,1.75-0.227,2.551-0.703l8.256-4.91c2.374-1.412,3.153-4.48,1.742-6.854   s-4.479-3.153-6.853-1.742l-8.256,4.91c-2.374,1.412-3.153,4.48-1.742,6.854C358.208,299.264,359.87,300.137,361.576,300.137z" fill="#474747"/><path d="M339.871,362.541c-2.316-1.507-5.413-0.852-6.918,1.463l-1.03,1.583c-1.506,2.314-0.852,5.412,1.463,6.918   c0.842,0.548,1.788,0.811,2.723,0.811c1.635,0,3.237-0.801,4.195-2.273l1.03-1.583C342.84,367.145,342.185,364.047,339.871,362.541   z" fill="#474747"/><path d="M352.428,343.247c-2.314-1.507-5.412-0.85-6.918,1.463l-4.411,6.777c-1.506,2.314-0.851,5.412,1.464,6.918   c0.842,0.548,1.788,0.811,2.722,0.811c1.635,0,3.237-0.802,4.196-2.273l4.411-6.777   C355.397,347.851,354.742,344.753,352.428,343.247z" fill="#474747"/><path d="M370.61,315.311c-2.316-1.507-5.412-0.85-6.918,1.463l-10.113,15.538c-1.506,2.314-0.851,5.412,1.463,6.918   c0.842,0.548,1.788,0.811,2.723,0.811c1.635,0,3.237-0.802,4.195-2.273l10.113-15.538   C373.58,319.914,372.925,316.816,370.61,315.311z" fill="#474747"/><path d="M380.399,300.269c-2.314-1.507-5.412-0.85-6.918,1.465l-0.709,1.09c-1.505,2.314-0.85,5.412,1.465,6.918   c0.842,0.548,1.787,0.81,2.722,0.81c1.635,0,3.238-0.802,4.196-2.274l0.709-1.09C383.369,304.872,382.713,301.774,380.399,300.269z   " fill="#474747"/></g></svg>