<svg id="IMG_4355_Изображение" data-name="IMG_4355 Изображение" xmlns="http://www.w3.org/2000/svg" xmlns:xlink="http://www.w3.org/1999/xlink" viewBox="0 0 461.56 461.56"><defs><style>.cls-1{stroke:#000;stroke-miterlimit:10;stroke-width:2px;fill:url(#Безымянный_градиент_44);}.cls-2{opacity:0.3;}.cls-3{fill:#fff;}.cls-4{fill:#013068;}.cls-5{fill:#6884a5;}</style><linearGradient id="Безымянный_градиент_44" x1="1" y1="230.78" x2="460.56" y2="230.78" gradientUnits="userSpaceOnUse"><stop offset="0" stop-color="#013068"/><stop offset="0.12" stop-color="#013971"/><stop offset="0.32" stop-color="#015289"/><stop offset="0.58" stop-color="#017ab0"/><stop offset="0.87" stop-color="#00b1e5"/><stop offset="1" stop-color="#0cf"/></linearGradient></defs><rect class="cls-1" x="1" y="1" width="459.56" height="459.56" rx="45"/><g class="cls-2"><path d="M327.52,456.66c-.11-.38-.45-.28-.7-.32-5.69-.88-9.27-5.33-9.33-11.34-.08-7.55,0-15.11.1-22.66.06-6.64.12-13.27-.15-19.9-.26-6.36,2.63-11.1,7.25-15.07,3.19-2.74,7.09-3.9,11-5.11,15.66-4.81,31.57-8.72,47.41-12.9,1.46-.39,3-.73,4.39-1.2.92-.29,1.25-.16,1.49.86,1.24,5.5,2.67,11,3.85,16.45,2.56,11.94,7.78,22.67,14.42,32.81,4,6.08,7.74,12.3,11.61,18.46a17.36,17.36,0,0,1,2.72,6.85c0,.16.06.3.25.35v.48a2.43,2.43,0,0,0,0,1.68v.72c-.73,4.69-3.67,7.51-7.93,9a9.88,9.88,0,0,1-9.47-1.19A16.33,16.33,0,0,1,400,450c-6.94-11.07-14.13-22-20.84-33.2a63.81,63.81,0,0,1-8.26-19.95c-.87-4.22-2.16-8.35-3.23-12.54-.3-1.18-.34-1.19-1.26-.49-7.51,5.64-15,11.27-22.46,17a7,7,0,0,0-2.88,5.87q-.12,6.36-.32,12.7c-.14,4.31,0,8.63-.23,12.93-.23,3.72-.07,7.43-.2,11.14a23.29,23.29,0,0,1-.77,5.81c-1,3.33-3.57,6.77-8.34,7.2-.34,0-.72-.07-1,.18h-.72a2.43,2.43,0,0,0-1.68,0Z" transform="translate(-9.67 -8.78)"/><path d="M421.82,354q-8.4,2.24-16.78,4.49-30.6,8.25-61.2,16.55c-.81.22-1.2.17-1.46-.72-.4-1.37-1-2.69-1.42-4.07-.26-.91-.64-1.11-1.58-.85q-21.92,5.94-43.85,11.82c-11.23,3-22.46,6-33.68,9.08-1,.29-1.27,0-1.5-.92-.62-2.48-1.26-5-2-7.4-.32-1-.09-1.32.92-1.59q20.37-5.46,40.73-11,18.33-5,36.68-9.9c.85-.23,1.06-.53.86-1.39-.39-1.79-.59-3.63-1-5.42-.24-1,.06-1.28,1-1.53q21.3-5.72,42.58-11.5,16.89-4.58,33.78-9.16c1-.28,1.41-.18,1.7.92,1.9,7.1,3.87,14.18,5.82,21.26a2.22,2.22,0,0,0,.47,1.09Z" transform="translate(-9.67 -8.78)"/><path d="M337.58,249.44c9.62,1.65,15.25,8.45,15.09,18.29,0,1.08-.17,2.15-.21,3.23,0,.8-.34,1.08-1.17,1.06-2.6,0-5.2,0-7.8,0H305c-3.16,0-4.51-2.35-3-5.16.29-.56.74-.37,1.14-.37,4.07,0,8.15,0,12.23,0A1.47,1.47,0,0,0,317,265.4a37.13,37.13,0,0,1,5.77-10,15.87,15.87,0,0,1,9.69-6A21.19,21.19,0,0,1,337.58,249.44Z" transform="translate(-9.67 -8.78)"/><path d="M189.06,415.63a3.09,3.09,0,0,1,0,2.64Z" transform="translate(-9.67 -8.78)"/><path d="M271.62,394.9a14.11,14.11,0,0,0,.71,1.41c2.24,3.4,1.64,6.8-.15,10.09-2.78,5.1-7.29,7.71-12.92,8.44A20.25,20.25,0,0,1,237,398.47a17.93,17.93,0,0,1,.83-9.32,5.35,5.35,0,0,1,1.77-2.37c.9-.72,1.82-1.42,2.88-2.25.46,2.33,1.3,4.39.75,6.82-1.64,7.28,2.15,14.55,8.65,16.93a13.35,13.35,0,0,0,11.24-.87,8.58,8.58,0,0,0,4.64-6.1C268.25,398.65,269.85,396.83,271.62,394.9Z" transform="translate(-9.67 -8.78)"/><path d="M189.06,414.67c.39-.1.29-.44.33-.69a24.16,24.16,0,0,1,4.52-10.34,16.47,16.47,0,0,0,3.42-9.39c.31-8.71,4.7-14.7,12.63-18.18a36.71,36.71,0,0,1,5.15-1.93,2,2,0,0,0,1.67-1.78c1.3-6.58,4.23-12.21,9.95-16.06,5-3.32,10.54-4.2,16.38-3.92a27.51,27.51,0,0,1,6.62,1c7.27,2.2,11.59,7.32,14.08,14.25a3.68,3.68,0,0,1,0,2.13c-.29,1.12-.61,2.23-.94,3.43-2-1.23-3.88-2.34-5-4.62-2-4.12-4.89-7.48-9.29-9.26-6.14-2.49-17.93-1.58-23.15,6.69a16.57,16.57,0,0,0,1.35,19.23c1.14,1.31.88,2.75.82,4.2-.07,1.68-.1,1.62-1.76,1.48a4.76,4.76,0,0,1-3.91-2.35c-1.48-2.32-2.9-4.68-4.23-7.09a1.59,1.59,0,0,0-1.9-.92c-7.71.92-12.73,6.78-12.53,14.68.18,7,3.71,12.22,9.73,14.23a20.9,20.9,0,0,0,10.09.49,33.28,33.28,0,0,1,5-.66c1.78,0,2.4.67,2.19,2.44a42.72,42.72,0,0,1-1.28,5.48c-1,4-1.56,8-.39,12.08,2.58,9,13.32,13.92,22.19,10.16,5.43-2.3,9-6.47,11.49-11.69.55-1.16,1-2.36,1.52-3.52,1.19-2.67,2.62-3.24,5.25-2a29.71,29.71,0,0,0,6.78,2.67c8.84,1.85,16.28-3.31,17.86-12.31a15,15,0,0,0-3.87-13.07c-2.33-2.67-2.53-3.11-3.2-6.63,4.41-.55,7.25,1.83,9.62,5.19,8.06,11.45,2.11,28.66-11.17,32.23-4.25,1.14-8.48.63-12.71-.2-1.13-.23-2.38-.82-3.38-.54s-1.32,1.79-1.95,2.74a36,36,0,0,1-10.88,11c-9.92,6.13-21.53,4.22-29.52-4.85a14.28,14.28,0,0,1-1.84-2.36,1.75,1.75,0,0,0-2.34-.85c-3,.77-5.93,1.65-9,2.2-10.74,1.95-19.23-2.93-23-13.2a25,25,0,0,1-1.05-3.81c-.07-.35.07-.83-.42-1v-1.2a5.88,5.88,0,0,0,0-2.64Zm6.46-.26a12.3,12.3,0,0,0-.34,4.52,15.33,15.33,0,0,0,20.55,12.37,9.07,9.07,0,0,0,6.24-7.24c.45-2.29.41-4.61.64-6.92.08-.75-.09-.94-.88-.88a26,26,0,0,1-10.19-1,22.29,22.29,0,0,1-11.6-8.93A20.89,20.89,0,0,0,195.52,414.41Z" transform="translate(-9.67 -8.78)"/><path d="M337.27,308a49.62,49.62,0,0,1-11.2-2.21,26,26,0,0,1-15.65-14c-2.37-4.84-4.21-9.9-6.45-14.77.29-.37.63-.2.92-.2q23.4,0,46.79,0c.89,0,1.24.12,1.14,1.15a18.88,18.88,0,0,1-1.74,6.93,10.1,10.1,0,0,1-5.91,5.28c-3.5,1.19-6,3.26-6.52,7.19,0,.43-.07.87-.09,1.31-.11,2.35.21,4.67.33,7.31.88-1.07,1.56-1.93,2.26-2.77a69.15,69.15,0,0,1,6.22-7.14,17.36,17.36,0,0,1,9.13-4.72c6.26-1,10.85,1.68,14.2,6.82a31.62,31.62,0,0,1,3.36,8.42c2.51,8.4,4.18,17,6.23,25.5.5,2.11.5,2.11-1.56,2.66-9.53,2.55-19.07,5.08-28.59,7.67-1,.27-1.33.16-1.56-.9-1-4.49-2.05-8.95-3.09-13.45-.49.07-.61.5-.84.79Q333.33,343.07,322,357.3a17.74,17.74,0,0,1-4.37,4.23,8.91,8.91,0,0,1-13.28-9.85,15.23,15.23,0,0,1,2.93-5.59l29.47-37.23C337,308.62,337.28,308.45,337.27,308ZM313.2,282.27c-.81,0-1,.22-.72,1s.4,1.47.67,2.18c3.28,8.87,9.25,14.56,18.9,15.88.79.1.95-.1.94-.84q0-8.58,0-17.15c0-.89-.31-1-1.1-1-3.08,0-6.15,0-9.23,0S316.36,282.31,313.2,282.27Z" transform="translate(-9.67 -8.78)"/></g><g class="cls-2"><path d="M34.84,339.43v-210h95.4q34.2,0,60.3,13t40.81,36.45Q246,202.33,246,234.43q0,31.8-14.69,55.35t-40.81,36.6q-26.1,13-60.3,13.05Zm48.6-39.9h44.4q21,0,36.45-7.95a57.6,57.6,0,0,0,24-22.65q8.55-14.69,8.55-34.5,0-20.09-8.55-34.65a57.94,57.94,0,0,0-24-22.5q-15.45-7.93-36.45-7.95H83.44Z" transform="translate(-9.67 -8.78)"/></g><path class="cls-3" d="M24.9,328.65v-210h95.4q34.2,0,60.3,13t40.8,36.45q14.7,23.4,14.7,55.5,0,31.8-14.7,55.35t-40.8,36.6q-26.1,13-60.3,13Zm48.6-39.9h44.4q21,0,36.45-7.95a57.66,57.66,0,0,0,24-22.65q8.55-14.7,8.55-34.5,0-20.1-8.55-34.65a57.94,57.94,0,0,0-24-22.5q-15.45-8-36.45-7.95H73.5Z" transform="translate(-9.67 -8.78)"/><g class="cls-2"><path d="M337.52,211a110.5,110.5,0,0,1-29-3.9,74.91,74.91,0,0,1-24.4-11.1l12.6-24.8a65.69,65.69,0,0,0,18.6,9.2,69.6,69.6,0,0,0,21.4,3.4q12.21,0,19.2-4.8a15.16,15.16,0,0,0,7-13.2,14.83,14.83,0,0,0-6.2-12.6q-6.2-4.61-20-4.6h-14.8v-21.4l39-44.2,3.6,11.6h-73.4v-26h98v21l-38.8,44.2-16.4-9.4h9.4q25.8,0,39,11.6t13.2,29.8a42.06,42.06,0,0,1-6.2,22.1q-6.19,10.31-19,16.7T337.52,211Z" transform="translate(-9.67 -8.78)"/></g><path class="cls-3" d="M329,201.07a110.5,110.5,0,0,1-29-3.9,74.91,74.91,0,0,1-24.4-11.1l12.6-24.8a65.43,65.43,0,0,0,18.6,9.2,69.6,69.6,0,0,0,21.4,3.4q12.19,0,19.2-4.8a15.16,15.16,0,0,0,7-13.2,14.86,14.86,0,0,0-6.2-12.6q-6.19-4.61-20-4.6h-14.8v-21.4l39-44.2,3.6,11.6h-73.4v-26h98v21l-38.8,44.2-16.4-9.4h9.4q25.8,0,39,11.6t13.2,29.8a42.15,42.15,0,0,1-6.2,22.1q-6.19,10.31-19,16.7T329,201.07Z" transform="translate(-9.67 -8.78)"/><path class="cls-4" d="M325.45,455c-.11-.37-.45-.28-.7-.31-5.69-.89-9.27-5.33-9.33-11.34-.08-7.55,0-15.11.1-22.66.06-6.64.12-13.28-.15-19.91-.26-6.35,2.63-11.09,7.25-15.06,3.19-2.74,7.09-3.91,11-5.11,15.66-4.82,31.57-8.72,47.4-12.9,1.47-.39,3-.73,4.39-1.2.92-.3,1.26-.16,1.49.86,1.24,5.49,2.67,10.95,3.85,16.45,2.57,11.94,7.78,22.67,14.42,32.81,4,6.08,7.75,12.3,11.61,18.46a17.31,17.31,0,0,1,2.72,6.85.35.35,0,0,0,.25.35v.48a2.43,2.43,0,0,0,0,1.68v.72c-.72,4.69-3.67,7.51-7.92,9a9.89,9.89,0,0,1-9.48-1.18,16.6,16.6,0,0,1-4.44-4.67c-6.94-11.07-14.12-22-20.84-33.21a63.5,63.5,0,0,1-8.25-19.94c-.87-4.23-2.17-8.36-3.24-12.54-.3-1.18-.33-1.19-1.26-.5-7.51,5.64-15,11.28-22.46,17A7.06,7.06,0,0,0,339,405q-.12,6.35-.32,12.7c-.13,4.31,0,8.63-.23,12.93-.23,3.72-.07,7.43-.2,11.14a22.7,22.7,0,0,1-.77,5.8c-1,3.33-3.56,6.78-8.33,7.21-.34,0-.73-.07-1,.17h-.72a2.55,2.55,0,0,0-1.68,0Z" transform="translate(-9.67 -8.78)"/><path class="cls-4" d="M419.75,352.29c-5.59,1.49-11.19,3-16.78,4.48q-30.6,8.26-61.2,16.56c-.81.22-1.2.17-1.46-.72-.4-1.38-1-2.69-1.41-4.07-.27-.92-.64-1.11-1.58-.85q-21.93,5.94-43.86,11.82c-11.23,3-22.46,6-33.68,9.08-1,.28-1.27,0-1.49-.92-.63-2.48-1.27-5-2-7.4-.32-1-.08-1.33.92-1.6q20.38-5.46,40.73-11,18.34-4.95,36.68-9.89c.86-.23,1.06-.53.87-1.39-.4-1.8-.6-3.64-1-5.42-.24-1,.06-1.29,1-1.53q21.29-5.71,42.58-11.5c11.26-3.05,22.52-6.08,33.77-9.17,1-.28,1.41-.17,1.71.93,1.89,7.1,3.87,14.18,5.82,21.26a2.12,2.12,0,0,0,.46,1.09Z" transform="translate(-9.67 -8.78)"/><path class="cls-4" d="M335.52,247.77c9.61,1.65,15.24,8.45,15.08,18.29,0,1.08-.17,2.15-.21,3.23,0,.8-.34,1.08-1.17,1.06-2.6-.05-5.2,0-7.8,0H302.93c-3.16,0-4.5-2.35-3-5.16.3-.56.74-.37,1.14-.38,4.08,0,8.16,0,12.23,0a1.49,1.49,0,0,0,1.67-1.08,37.1,37.1,0,0,1,5.76-10,15.89,15.89,0,0,1,9.7-5.95A21.22,21.22,0,0,1,335.52,247.77Z" transform="translate(-9.67 -8.78)"/><path class="cls-5" d="M187,414a3.16,3.16,0,0,1,0,2.64Z" transform="translate(-9.67 -8.78)"/><path class="cls-4" d="M269.56,393.23a15.45,15.45,0,0,0,.7,1.41c2.24,3.4,1.65,6.79-.15,10.09-2.77,5.1-7.29,7.71-12.92,8.43a20.25,20.25,0,0,1-22.28-16.36,18.08,18.08,0,0,1,.83-9.33,5.32,5.32,0,0,1,1.78-2.36c.89-.73,1.81-1.43,2.87-2.25.47,2.32,1.3,4.39.75,6.82-1.64,7.28,2.15,14.55,8.65,16.93a13.34,13.34,0,0,0,11.24-.88,8.61,8.61,0,0,0,4.65-6.09C266.18,397,267.78,395.16,269.56,393.23Z" transform="translate(-9.67 -8.78)"/><path class="cls-4" d="M187,413c.38-.09.29-.44.33-.68A24.09,24.09,0,0,1,191.84,402a16.43,16.43,0,0,0,3.42-9.4c.32-8.7,4.7-14.69,12.63-18.17a36.37,36.37,0,0,1,5.16-1.93,2,2,0,0,0,1.66-1.78c1.3-6.58,4.23-12.22,9.95-16.06,5-3.33,10.54-4.21,16.38-3.92a27.51,27.51,0,0,1,6.62,1c7.27,2.2,11.6,7.32,14.08,14.24a3.6,3.6,0,0,1,0,2.13c-.28,1.13-.61,2.24-.94,3.44-2-1.23-3.88-2.34-5-4.62-2-4.12-4.89-7.49-9.28-9.27-6.15-2.48-17.94-1.57-23.15,6.69a16.57,16.57,0,0,0,1.34,19.24c1.14,1.3.88,2.75.82,4.2-.07,1.68-.1,1.61-1.75,1.48a4.76,4.76,0,0,1-3.92-2.35c-1.48-2.33-2.9-4.68-4.23-7.1a1.6,1.6,0,0,0-1.9-.92c-7.7.93-12.73,6.79-12.53,14.69.18,7,3.71,12.22,9.74,14.23a21,21,0,0,0,10.08.49,32.21,32.21,0,0,1,5-.67c1.78,0,2.4.68,2.19,2.45a41.47,41.47,0,0,1-1.28,5.48c-1,4-1.55,8-.39,12.08,2.58,9,13.32,13.92,22.19,10.16,5.44-2.3,9-6.48,11.49-11.7.55-1.15,1-2.35,1.52-3.52,1.2-2.66,2.62-3.23,5.26-2a30.1,30.1,0,0,0,6.77,2.67c8.85,1.85,16.28-3.31,17.86-12.32a15,15,0,0,0-3.87-13.07c-2.32-2.66-2.53-3.11-3.2-6.62,4.42-.55,7.25,1.82,9.62,5.19,8.06,11.44,2.12,28.66-11.17,32.22-4.25,1.15-8.48.64-12.7-.2-1.14-.22-2.39-.81-3.39-.53s-1.32,1.78-1.95,2.73a35.87,35.87,0,0,1-10.87,11c-9.93,6.13-21.54,4.22-29.53-4.86a14.76,14.76,0,0,1-1.84-2.35c-.59-1-1.28-1.12-2.34-.85-3,.77-5.93,1.65-9,2.2-10.74,1.95-19.22-2.93-23-13.2a25,25,0,0,1-1.05-3.81c-.07-.35.08-.83-.41-1v-1.2a6.18,6.18,0,0,0,0-2.64Zm6.46-.25a12.31,12.31,0,0,0-.35,4.52,15.34,15.34,0,0,0,20.56,12.37,9.07,9.07,0,0,0,6.23-7.24,67.15,67.15,0,0,0,.64-6.92c.08-.75-.09-.94-.88-.88a26.24,26.24,0,0,1-10.19-1,22.27,22.27,0,0,1-11.59-8.94A20.74,20.74,0,0,0,193.46,412.74Z" transform="translate(-9.67 -8.78)"/><path class="cls-4" d="M335.21,306.32A50.26,50.26,0,0,1,324,304.11a26,26,0,0,1-15.64-14c-2.37-4.84-4.22-9.9-6.46-14.78.29-.36.63-.19.92-.19q23.4,0,46.79,0c.9,0,1.24.12,1.15,1.15a19.08,19.08,0,0,1-1.74,6.93,10.09,10.09,0,0,1-5.92,5.28c-3.49,1.18-6,3.26-6.51,7.18-.06.44-.08.88-.1,1.32-.11,2.35.22,4.67.33,7.31.88-1.08,1.56-1.93,2.26-2.77a69.31,69.31,0,0,1,6.22-7.14,17.44,17.44,0,0,1,9.13-4.73c6.26-1,10.85,1.69,14.2,6.82a31.58,31.58,0,0,1,3.37,8.43c2.5,8.39,4.18,17,6.22,25.49.51,2.12.5,2.12-1.56,2.67-9.53,2.55-19.07,5.08-28.59,7.67-1,.27-1.33.16-1.56-.9-1-4.49-2-9-3.08-13.45-.5.06-.62.5-.85.79Q331.27,341.41,320,355.63a17.74,17.74,0,0,1-4.37,4.23A8.91,8.91,0,0,1,302.31,350a15.27,15.27,0,0,1,2.93-5.58l29.47-37.23C334.89,307,335.21,306.78,335.21,306.32Zm-24.08-25.73c-.81,0-1,.23-.72,1s.41,1.46.67,2.17c3.29,8.88,9.25,14.57,18.9,15.88.79.11.95-.09.94-.84,0-5.71,0-11.42,0-17.14,0-.89-.31-1-1.1-1-3.07.05-6.15,0-9.23,0S314.29,280.64,311.13,280.59Z" transform="translate(-9.67 -8.78)"/></svg>